<svg width="451" height="438" viewBox="0 0 451 438" fill="none" xmlns="http://www.w3.org/2000/svg">
<path d="M71 70.9661C71 31.7768 102.777 0 141.966 0H309.034C348.223 0 380 31.7768 380 70.9661V238.034C380 277.223 348.223 309 309.034 309H141.966C102.777 309 71 277.223 71 238.034V70.9661Z" fill="#6500F4"/>
<path d="M255.315 33.8556L155.184 133.987L191.838 170.642L291.97 70.5102L255.315 33.8556Z" fill="white"/>
<path fill-rule="evenodd" clip-rule="evenodd" d="M166.876 184.852C166.876 191.494 164.352 198.123 159.29 203.184L157.636 204.839C147.512 214.95 131.107 214.95 120.983 204.839C110.86 194.715 110.86 178.31 120.983 168.186L122.638 166.532C132.761 156.409 149.166 156.409 159.29 166.532C164.352 171.594 166.876 178.223 166.876 184.852Z" fill="#FC66FF"/>
<path fill-rule="evenodd" clip-rule="evenodd" d="M330.002 140.813L328.348 142.454C318.224 152.578 301.82 152.578 291.696 142.454C286.634 137.392 284.109 130.776 284.109 124.134C284.109 117.506 286.634 110.877 291.696 105.815L293.35 104.16C303.474 94.0367 319.879 94.0367 330.002 104.16C340.126 114.284 340.126 130.689 330.002 140.813Z" fill="#03B9FF"/>
<path d="M259.145 138.364L159.014 238.496L195.668 275.15L295.8 175.019L259.145 138.364Z" fill="white"/>
<path fill-rule="evenodd" clip-rule="evenodd" d="M9.92733 339C4.47515 339 0 342.999 0 348.531C0 354.063 4.47516 358.061 9.92733 358.061C15.4543 358.061 20.0531 353.986 20.0531 348.531C20.0531 342.963 15.4407 339 9.92733 339ZM47.098 347.531H30.8145V361.915H21.6882V376.512H30.8145V415.696H47.098V376.512H58.4067V361.915H47.098V347.531ZM146.2 360.229C141.605 360.229 137.408 361.404 134.106 363.645V361.915H118.715V415.696H134.998V383.945C134.998 379.28 138.738 375.52 143.522 375.52C148.184 375.52 151.649 379.154 151.649 384.341V415.696H167.932V384.044C167.932 379.15 171.604 375.52 176.258 375.52C178.709 375.52 180.702 376.439 182.095 377.973C183.499 379.52 184.385 381.796 184.385 384.639V415.696H200.668V382.06C200.668 375.679 198.446 370.196 194.516 366.307C190.588 362.419 185.059 360.229 178.639 360.229C172.05 360.229 165.924 362.514 161.897 366.48C158.026 362.469 152.578 360.229 146.2 360.229ZM87.4831 360.427C71.3373 360.427 58.708 372.934 58.708 389.004C58.708 405.265 71.6323 417.184 88.8719 417.184C98.7221 417.184 107.25 413.335 112.749 406.25L113.748 404.964L100.819 395.36L99.853 396.509C98.1121 398.579 96.4394 399.979 94.6652 400.872C92.9021 401.759 90.9479 402.19 88.5743 402.19C85.0841 402.19 82.2847 401.273 80.2382 399.752C78.7065 398.613 77.544 397.098 76.8193 395.261H114.314L114.464 393.833C114.667 391.899 114.77 389.959 114.77 388.409C114.77 372.601 103.295 360.427 87.4831 360.427ZM225.338 360.427C219.423 360.427 214.346 362.182 210.72 365.302C207.078 368.435 204.995 372.871 204.995 377.993C204.995 381.785 206.167 384.973 208.614 387.7C211.013 390.373 214.561 392.519 219.168 394.443L219.174 394.445L221.337 395.33L221.349 395.335C224.118 396.522 225.66 397.38 226.514 398.135C226.916 398.49 227.121 398.785 227.235 399.039C227.349 399.292 227.414 399.592 227.414 400.015C227.414 401.028 227.07 401.649 226.533 402.063C225.934 402.526 224.892 402.884 223.255 402.884C220.047 402.884 216.318 401.493 212.336 398.364L211.007 397.32L202.922 408.942L203.888 409.885C208.426 414.315 216.804 417.184 224.346 417.184C230.256 417.184 235.271 415.455 238.831 412.307C242.409 409.144 244.392 404.655 244.392 399.42C244.392 395.626 243.373 392.459 240.989 389.708C238.661 387.021 235.128 384.847 230.338 382.779L230.335 382.778L228.749 382.084L228.744 382.082C225.622 380.744 223.824 379.776 222.811 378.951C222.325 378.555 222.082 378.24 221.953 377.995C221.833 377.766 221.774 377.524 221.774 377.199C221.774 376.43 222.065 375.909 222.641 375.515C223.294 375.069 224.422 374.727 226.132 374.727C229.19 374.727 231.947 375.76 234.922 377.899L236.355 378.928L243.606 366.335L242.443 365.492C238.157 362.385 231.465 360.427 225.338 360.427ZM356.094 360.427C340.604 360.427 328.212 373.072 328.212 388.805C328.212 404.539 340.604 417.184 356.094 417.184C361.558 417.184 366.675 415.609 370.966 412.808V415.696H386.555V361.915H370.966V364.803C366.675 362.001 361.558 360.427 356.094 360.427ZM422.942 360.427C417.366 360.427 412.221 362.086 407.872 364.979V361.915H392.481V437.519H408.764V413.256C412.902 415.757 417.747 417.184 422.942 417.184C438.528 417.184 450.924 404.542 450.924 388.805C450.924 373.068 438.528 360.427 422.942 360.427ZM18.1683 361.915H1.88478V415.696H18.1683V361.915ZM261.805 361.915H244.207L262.978 415.696H277.862L287.733 385.727L297.782 415.696H312.577L330.504 361.915H313.826L304.753 390.986L295.327 361.915H280.611L271.075 391.138L261.805 361.915ZM97.1933 381.656H77.3547C78.0909 380.018 79.0987 378.634 80.3595 377.579C82.0975 376.125 84.4064 375.222 87.3839 375.222C92.3746 375.222 95.9166 377.769 97.1933 381.656ZM345.19 388.805C345.19 381.31 350.768 375.718 357.78 375.718C364.686 375.718 370.272 381.302 370.272 388.805C370.272 396.308 364.686 401.892 357.78 401.892C350.768 401.892 345.19 396.301 345.19 388.805ZM408.764 388.805C408.764 381.31 414.442 375.718 421.256 375.718C428.283 375.718 433.946 381.325 433.946 388.805C433.946 396.286 428.283 401.892 421.256 401.892C414.442 401.892 408.764 396.301 408.764 388.805Z" fill="url(#paint0_linear_237_114)"/>
<defs>
<linearGradient id="paint0_linear_237_114" x1="203.643" y1="388.26" x2="-157.706" y2="388.26" gradientUnits="userSpaceOnUse">
<stop stop-color="#23205B"/>
<stop offset="1" stop-color="#7539FE"/>
</linearGradient>
</defs>
</svg>
