<svg width="927" height="176" viewBox="0 0 927 176" fill="none" xmlns="http://www.w3.org/2000/svg">
<path d="M0 40.2839C0 18.0381 18.0381 0 40.2839 0H135.12C157.365 0 175.404 18.0381 175.404 40.2839V135.12C175.404 157.365 157.365 175.404 135.12 175.404H40.2839C18.0381 175.404 0 157.365 0 135.12V40.2839Z" fill="white"/>
<path d="M104.627 19.218L47.7871 76.0576L68.594 96.8645L125.434 40.0249L104.627 19.218Z" fill="#6500F4"/>
<path fill-rule="evenodd" clip-rule="evenodd" d="M54.4246 104.931C54.4246 108.701 52.9915 112.464 50.1181 115.337L49.1791 116.276C43.4323 122.016 34.1203 122.016 28.3736 116.276C22.6268 110.53 22.6268 101.217 28.3736 95.4707L29.3125 94.5318C35.0593 88.785 44.3713 88.785 50.1181 94.5318C52.9915 97.4051 54.4246 101.168 54.4246 104.931Z" fill="#FC66FF"/>
<path fill-rule="evenodd" clip-rule="evenodd" d="M147.023 79.932L146.084 80.864C140.337 86.6107 131.025 86.6107 125.278 80.864C122.405 77.9906 120.972 74.2347 120.972 70.4647C120.972 66.7018 122.405 62.9388 125.278 60.0655L126.217 59.1265C131.964 53.3797 141.276 53.3797 147.023 59.1265C152.77 64.8733 152.77 74.1853 147.023 79.932Z" fill="#03B9FF"/>
<path d="M106.801 78.5422L49.9609 135.382L70.7679 156.189L127.607 99.3491L106.801 78.5422Z" fill="#6500F4"/>
<path fill-rule="evenodd" clip-rule="evenodd" d="M235.109 20.9465C226.561 20.9465 219.545 27.2153 219.545 35.8883C219.545 44.5613 226.561 50.8301 235.109 50.8301C243.774 50.8301 250.984 44.4416 250.984 35.8883C250.984 27.1599 243.753 20.9465 235.109 20.9465ZM293.384 34.3215H267.855V56.8722H253.547V79.7573H267.855V141.189H293.384V79.7573H311.114V56.8722H293.384V34.3215ZM448.755 54.2283C441.55 54.2283 434.97 56.0715 429.793 59.5848V56.8722H405.664V141.189H431.193V91.4098C431.193 84.0973 437.056 78.2021 444.556 78.2021C451.864 78.2021 457.297 83.8986 457.297 92.0319V141.189H482.826V91.5653C482.826 83.8931 488.582 78.2021 495.879 78.2021C499.722 78.2021 502.847 79.6428 505.031 82.0482C507.232 84.4725 508.62 88.0407 508.62 92.4985V141.189H534.149V88.4549C534.149 78.4506 530.665 69.8554 524.504 63.7578C518.344 57.6625 509.677 54.2283 499.611 54.2283C489.282 54.2283 479.678 57.8109 473.364 64.0287C467.294 57.7413 458.754 54.2283 448.755 54.2283ZM356.699 54.5394C331.386 54.5394 311.586 74.1478 311.586 99.3415C311.586 124.836 331.849 143.521 358.877 143.521C374.32 143.521 387.69 137.488 396.311 126.38L397.876 124.363L377.607 109.306L376.092 111.107C373.363 114.353 370.741 116.549 367.959 117.948C365.195 119.339 362.131 120.014 358.41 120.014C352.938 120.014 348.549 118.578 345.341 116.192C342.94 114.407 341.117 112.031 339.981 109.151H398.764L398.999 106.913C399.318 103.881 399.48 100.838 399.48 98.4083C399.48 73.6262 381.49 54.5394 356.699 54.5394ZM572.826 54.5394C563.553 54.5394 555.592 57.2913 549.908 62.1816C544.198 67.0946 540.932 74.0495 540.932 82.0785C540.932 88.0246 542.769 93.0226 546.606 97.2981C550.367 101.488 555.929 104.853 563.153 107.869L563.161 107.873L566.553 109.26L566.572 109.268C570.912 111.129 573.33 112.473 574.669 113.657C575.299 114.213 575.62 114.676 575.8 115.075C575.978 115.471 576.08 115.941 576.08 116.604C576.08 118.193 575.542 119.166 574.7 119.816C573.761 120.541 572.126 121.103 569.56 121.103C564.531 121.103 558.684 118.921 552.441 114.017L550.358 112.379L537.682 130.601L539.197 132.079C546.311 139.024 559.446 143.521 571.27 143.521C580.536 143.521 588.398 140.812 593.98 135.876C599.589 130.917 602.698 123.879 602.698 115.671C602.698 109.723 601.101 104.759 597.363 100.445C593.713 96.2334 588.175 92.8249 580.664 89.583L580.659 89.581L578.174 88.4936L578.165 88.4899C573.271 86.3923 570.452 84.8743 568.864 83.581C568.101 82.96 567.72 82.4667 567.519 82.0824C567.331 81.7226 567.238 81.3432 567.238 80.8343C567.238 79.6286 567.694 78.8115 568.598 78.1942C569.621 77.4952 571.39 76.9579 574.07 76.9579C578.865 76.9579 583.187 78.578 587.852 81.9312L590.098 83.5453L601.465 63.8014L599.643 62.4804C592.923 57.6083 582.431 54.5394 572.826 54.5394ZM777.822 54.5394C753.537 54.5394 734.109 74.3642 734.109 99.0304C734.109 123.697 753.537 143.521 777.822 143.521C786.388 143.521 794.412 141.053 801.139 136.661V141.189H825.579V56.8722H801.139V61.3996C794.412 57.0077 786.388 54.5394 777.822 54.5394ZM882.626 54.5394C873.884 54.5394 865.817 57.1408 858.998 61.6755V56.8722H834.869V175.404H860.398V137.363C866.884 141.285 874.481 143.521 882.626 143.521C907.061 143.521 926.495 123.703 926.495 99.0304C926.495 74.358 907.061 54.5394 882.626 54.5394ZM248.029 56.8722H222.5V141.189H248.029V56.8722ZM629.998 56.8722H602.408L631.836 141.189H655.172L670.647 94.2045L686.402 141.189H709.598L737.703 56.8722H711.556L697.331 102.449L682.553 56.8722H659.481L644.532 102.688L629.998 56.8722ZM371.923 87.8212H340.82C341.974 85.2544 343.554 83.0832 345.531 81.43C348.256 79.1511 351.876 77.7355 356.544 77.7355C364.368 77.7355 369.921 81.7273 371.923 87.8212ZM760.727 99.0304C760.727 87.2791 769.472 78.5131 780.466 78.5131C791.293 78.5131 800.05 87.2675 800.05 99.0304C800.05 110.793 791.293 119.548 780.466 119.548C769.472 119.548 760.727 110.782 760.727 99.0304ZM860.398 99.0304C860.398 87.2791 869.299 78.5131 879.982 78.5131C890.999 78.5131 899.878 87.3021 899.878 99.0304C899.878 110.759 890.999 119.548 879.982 119.548C869.299 119.548 860.398 110.782 860.398 99.0304Z" fill="white"/>
</svg>
