<svg width="927" height="176" viewBox="0 0 927 176" fill="none" xmlns="http://www.w3.org/2000/svg">
<path d="M0 40.2839C0 18.0381 18.0381 0 40.2839 0H135.12C157.365 0 175.404 18.0381 175.404 40.2839V135.12C175.404 157.365 157.365 175.404 135.12 175.404H40.2839C18.0381 175.404 0 157.365 0 135.12V40.2839Z" fill="#6500F4"/>
<path d="M104.627 19.218L47.7871 76.0576L68.594 96.8645L125.434 40.0249L104.627 19.218Z" fill="white"/>
<path fill-rule="evenodd" clip-rule="evenodd" d="M54.4246 104.931C54.4246 108.701 52.9915 112.464 50.1181 115.337L49.1791 116.276C43.4323 122.016 34.1203 122.016 28.3736 116.276C22.6268 110.53 22.6268 101.217 28.3736 95.4707L29.3125 94.5318C35.0593 88.785 44.3713 88.785 50.1181 94.5318C52.9915 97.4051 54.4246 101.168 54.4246 104.931Z" fill="#FC66FF"/>
<path fill-rule="evenodd" clip-rule="evenodd" d="M147.023 79.932L146.084 80.864C140.337 86.6107 131.025 86.6107 125.278 80.864C122.405 77.9906 120.972 74.2347 120.972 70.4647C120.972 66.7018 122.405 62.9388 125.278 60.0655L126.217 59.1265C131.964 53.3797 141.276 53.3797 147.023 59.1265C152.77 64.8733 152.77 74.1853 147.023 79.932Z" fill="#03B9FF"/>
<path d="M106.801 78.5422L49.9609 135.382L70.7679 156.189L127.607 99.3491L106.801 78.5422Z" fill="white"/>
<path fill-rule="evenodd" clip-rule="evenodd" d="M235.109 10C226.561 10 219.545 16.2688 219.545 24.9418C219.545 33.6148 226.561 39.8836 235.109 39.8836C243.774 39.8836 250.984 33.4951 250.984 24.9418C250.984 16.2133 243.753 10 235.109 10ZM293.384 23.3749H267.855V45.9257H253.547V68.8107H267.855V130.242H293.384V68.8107H311.114V45.9257H293.384V23.3749ZM448.755 43.2818C441.55 43.2818 434.97 45.125 429.793 48.6383V45.9257H405.664V130.242H431.193V80.4633C431.193 73.1508 437.056 67.2555 444.556 67.2555C451.864 67.2555 457.297 72.952 457.297 81.0854V130.242H482.826V80.6188C482.826 72.9466 488.582 67.2555 495.879 67.2555C499.722 67.2555 502.847 68.6962 505.031 71.1017C507.232 73.526 508.62 77.0942 508.62 81.5519V130.242H534.149V77.5084C534.149 67.5041 530.665 58.9088 524.504 52.8113C518.344 46.7159 509.677 43.2818 499.611 43.2818C489.282 43.2818 479.678 46.8644 473.364 53.0822C467.294 46.7947 458.754 43.2818 448.755 43.2818ZM356.699 43.5928C331.386 43.5928 311.586 63.2013 311.586 88.3949C311.586 113.89 331.849 132.575 358.877 132.575C374.32 132.575 387.69 126.541 396.311 115.433L397.876 113.416L377.607 98.3594L376.092 100.161C373.363 103.406 370.741 105.602 367.959 107.002C365.195 108.392 362.131 109.068 358.41 109.068C352.938 109.068 348.549 107.631 345.341 105.246C342.94 103.46 341.117 101.084 339.981 98.2045H398.764L398.999 95.9662C399.318 92.9348 399.48 89.892 399.48 87.4618C399.48 62.6797 381.49 43.5928 356.699 43.5928ZM572.826 43.5928C563.553 43.5928 555.592 46.3448 549.908 51.2351C544.198 56.1481 540.932 63.103 540.932 71.1319C540.932 77.078 542.769 82.076 546.606 86.3516C550.367 90.5418 555.929 93.9061 563.153 96.9228L563.161 96.9262L566.553 98.3134L566.572 98.3216C570.912 100.183 573.33 101.526 574.669 102.71C575.299 103.267 575.62 103.73 575.8 104.129C575.978 104.524 576.08 104.995 576.08 105.658C576.08 107.247 575.542 108.22 574.7 108.87C573.761 109.595 572.126 110.156 569.56 110.156C564.531 110.156 558.684 107.975 552.441 103.07L550.358 101.433L537.682 119.654L539.197 121.133C546.311 128.078 559.446 132.575 571.27 132.575C580.536 132.575 588.398 129.865 593.98 124.93C599.589 119.971 602.698 112.933 602.698 104.725C602.698 98.7766 601.101 93.8121 597.363 89.4987C593.713 85.2869 588.175 81.8784 580.664 78.6365L580.659 78.6345L578.174 77.547L578.165 77.5433C573.271 75.4457 570.452 73.9277 568.864 72.6344C568.101 72.0134 567.72 71.5202 567.519 71.1359C567.331 70.7761 567.238 70.3966 567.238 69.8878C567.238 68.6821 567.694 67.865 568.598 67.2477C569.621 66.5486 571.39 66.0113 574.07 66.0113C578.865 66.0113 583.187 67.6315 587.852 70.9847L590.098 72.5988L601.465 52.8549L599.643 51.5339C592.923 46.6618 582.431 43.5928 572.826 43.5928ZM777.822 43.5928C753.537 43.5928 734.109 63.4177 734.109 88.0839C734.109 112.75 753.537 132.575 777.822 132.575C786.388 132.575 794.412 130.107 801.139 125.715V130.242H825.579V45.9257H801.139V50.453C794.412 46.0612 786.388 43.5928 777.822 43.5928ZM882.626 43.5928C873.884 43.5928 865.817 46.1943 858.998 50.7289V45.9257H834.869V164.457H860.398V126.417C866.884 130.339 874.481 132.575 882.626 132.575C907.061 132.575 926.495 112.756 926.495 88.0839C926.495 63.4115 907.061 43.5928 882.626 43.5928ZM248.029 45.9257H222.5V130.242H248.029V45.9257ZM629.998 45.9257H602.408L631.836 130.242H655.172L670.647 83.2579L686.402 130.242H709.598L737.703 45.9257H711.556L697.331 91.5026L682.553 45.9257H659.481L644.532 91.7413L629.998 45.9257ZM371.923 76.8746H340.82C341.974 74.3079 343.554 72.1367 345.531 70.4835C348.256 68.2046 351.876 66.789 356.544 66.789C364.368 66.789 369.921 70.7807 371.923 76.8746ZM760.727 88.0839C760.727 76.3326 769.472 67.5666 780.466 67.5666C791.293 67.5666 800.05 76.3209 800.05 88.0839C800.05 99.8468 791.293 108.601 780.466 108.601C769.472 108.601 760.727 99.8352 760.727 88.0839ZM860.398 88.0839C860.398 76.3326 869.299 67.5666 879.982 67.5666C890.999 67.5666 899.878 76.3556 899.878 88.0839C899.878 99.8121 890.999 108.601 879.982 108.601C869.299 108.601 860.398 99.8352 860.398 88.0839Z" fill="url(#paint0_linear_238_78)"/>
<defs>
<linearGradient id="paint0_linear_238_78" x1="538.812" y1="87.2285" x2="-27.7035" y2="87.2285" gradientUnits="userSpaceOnUse">
<stop stop-color="#23205B"/>
<stop offset="1" stop-color="#7539FE"/>
</linearGradient>
</defs>
</svg>
