<?xml version="1.0" encoding="utf-8"?>
<!-- Generator: Adobe Illustrator 24.0.2, SVG Export Plug-In . SVG Version: 6.00 Build 0)  -->
<svg version="1.1" id="Layer_1" xmlns="http://www.w3.org/2000/svg" xmlns:xlink="http://www.w3.org/1999/xlink" x="0px" y="0px"
	 viewBox="0 0 3052 700" style="enable-background:new 0 0 3052 700;" xml:space="preserve">
<style type="text/css">
	.st0{fill:url(#SVGID_1_);}
	.st1{fill:#FFFFFF;}
	.st2{fill-rule:evenodd;clip-rule:evenodd;fill:#FFFFFF;}
</style>
<linearGradient id="SVGID_1_" gradientUnits="userSpaceOnUse" x1="350" y1="699.8898" x2="350" y2="-0.1102" gradientTransform="matrix(1 0 0 -1 0 699.8898)">
	<stop  offset="0" style="stop-color:#22BFFF"/>
	<stop  offset="1" style="stop-color:#0068FF"/>
</linearGradient>
<path class="st0" d="M200,0h300c110.5,0,200,89.5,200,200v300c0,110.5-89.5,200-200,200H200C89.5,700,0,610.5,0,500V200
	C0,89.5,89.5,0,200,0z"/>
<path class="st1" d="M407.4,117.7L214.6,310.5l70.6,70.6L478,188.3L407.4,117.7z"/>
<path class="st2" d="M237.1,408.4c0,12.8-4.9,25.6-14.6,35.3l-3.2,3.2c-19.5,19.5-51.1,19.5-70.6,0c-19.5-19.5-19.5-51.1,0-70.6
	l3.2-3.2c19.5-19.5,51.1-19.5,70.6,0C232.3,382.9,237.1,395.7,237.1,408.4z"/>
<path class="st2" d="M551.3,323.6l-3.2,3.2c-19.5,19.5-51.1,19.5-70.6,0c-9.7-9.7-14.6-22.5-14.6-35.3c0-12.8,4.9-25.5,14.6-35.3
	l3.2-3.2c19.5-19.5,51.1-19.5,70.6,0C570.8,272.6,570.8,304.1,551.3,323.6z"/>
<path class="st1" d="M414.8,318.9L222,511.7l70.6,70.6l192.8-192.8L414.8,318.9z"/>
<path class="st1" d="M848.5,150c-26,0-47.4,19.1-47.4,45.5c0,26.4,21.3,45.5,47.4,45.5c26.4,0,48.3-19.4,48.3-45.5
	C896.8,168.9,874.8,150,848.5,150z"/>
<path class="st1" d="M1040,190.7h-77.7v68.6h-43.5V329h43.5v186.9h77.7V329h53.9v-69.6H1040V190.7z"/>
<path class="st1" d="M1541.3,251.3c-21.9,0-42,5.6-57.7,16.3v-8.3h-73.4v256.6h77.7V364.4c0-22.3,17.8-40.2,40.7-40.2
	c22.2,0,38.8,17.3,38.8,42.1v149.6h77.7v-151c0-23.3,17.5-40.7,39.7-40.7c11.7,0,21.2,4.4,27.9,11.7c6.7,7.4,10.9,18.2,10.9,31.8
	v148.2h77.7V355.4c0-30.4-10.6-56.6-29.3-75.2c-18.7-18.5-45.1-29-75.7-29c-31.4,0-60.7,10.9-79.9,29.8
	C1597.7,262,1571.7,251.3,1541.3,251.3z"/>
<path class="st2" d="M1246.9,252.2c-77,0-137.3,59.7-137.3,136.3c0,77.6,61.7,134.4,143.9,134.4c47,0,87.7-18.4,113.9-52.2l4.8-6.1
	l-61.7-45.8l-4.6,5.5c-8.3,9.9-16.3,16.6-24.8,20.8c-8.4,4.2-17.7,6.3-29.1,6.3c-16.7,0-30-4.4-39.8-11.6
	c-7.3-5.4-12.8-12.7-16.3-21.4h178.9l0.7-6.8c1-9.2,1.5-18.5,1.5-25.9C1377.1,310.3,1322.4,252.2,1246.9,252.2z M1293.3,353.5h-94.6
	c3.5-7.8,8.3-14.4,14.3-19.4c8.3-6.9,19.3-11.2,33.5-11.2C1270.3,322.8,1287.2,335,1293.3,353.5z"/>
<path class="st1" d="M1933.1,252.2c-28.2,0-52.4,8.4-69.7,23.3c-17.4,14.9-27.3,36.1-27.3,60.5c0,18.1,5.6,33.3,17.3,46.3
	c11.4,12.8,28.4,23,50.3,32.2l0,0l10.3,4.2l0.1,0c13.2,5.7,20.6,9.8,24.6,13.4c1.9,1.7,2.9,3.1,3.4,4.3c0.5,1.2,0.8,2.6,0.8,4.7
	c0,4.8-1.6,7.8-4.2,9.8c-2.9,2.2-7.8,3.9-15.6,3.9c-15.3,0-33.1-6.6-52.1-21.6l-6.3-5l-38.6,55.4l4.6,4.5
	c21.7,21.1,61.6,34.8,97.6,34.8c28.2,0,52.1-8.2,69.1-23.3c17.1-15.1,26.5-36.5,26.5-61.5c0-18.1-4.9-33.2-16.2-46.3
	c-11.1-12.8-28-23.2-50.8-33.1l0,0l-7.6-3.3l0,0c-14.9-6.4-23.5-11-28.3-14.9c-2.3-1.9-3.5-3.4-4.1-4.6c-0.6-1.1-0.9-2.2-0.9-3.8
	c0-3.7,1.4-6.2,4.1-8c3.1-2.1,8.5-3.8,16.7-3.8c14.6,0,27.8,4.9,41.9,15.1l6.8,4.9l34.6-60.1l-5.5-4
	C1994.2,261.6,1962.3,252.2,1933.1,252.2z"/>
<path class="st2" d="M2585.4,252.2c-73.9,0-133,60.3-133,135.4s59.1,135.4,133,135.4c26.1,0,50.5-7.5,70.9-20.9v13.8h74.4V259.3
	h-74.4v13.8C2635.8,259.7,2611.4,252.2,2585.4,252.2z M2533.3,387.6c0-35.8,26.6-62.4,60.1-62.4c33,0,59.6,26.6,59.6,62.4
	s-26.6,62.4-59.6,62.4C2559.9,450,2533.3,423.4,2533.3,387.6z"/>
<path class="st2" d="M2918.5,252.2c-26.6,0-51.1,7.9-71.9,21.7v-14.6h-73.4V620h77.7V504.2c19.7,11.9,42.8,18.7,67.6,18.7
	c74.4,0,133.5-60.3,133.5-135.4S2992.9,252.2,2918.5,252.2z M2850.9,387.6c0-35.8,27.1-62.4,59.6-62.4c33.5,0,60.5,26.7,60.5,62.4
	s-27,62.4-60.5,62.4C2878,450,2850.9,423.4,2850.9,387.6z"/>
<path class="st1" d="M887.8,259.3h-77.7v256.6h77.7V259.3z"/>
<path class="st1" d="M2121.3,259.3h-84l89.5,256.6h71l47.1-143l47.9,143h70.6l85.5-256.6h-79.6L2326.2,398l-45-138.7H2211
	l-45.5,139.4L2121.3,259.3z"/>
</svg>
