<?xml version="1.0" encoding="utf-8"?>
<!-- Generator: Adobe Illustrator 25.0.0, SVG Export Plug-In . SVG Version: 6.00 Build 0)  -->
<svg version="1.1" id="Layer_1" xmlns="http://www.w3.org/2000/svg" xmlns:xlink="http://www.w3.org/1999/xlink" x="0px" y="0px"
	 viewBox="0 0 595.28 245.49" style="enable-background:new 0 0 595.28 245.49;" xml:space="preserve">
<style type="text/css">
	.st0{opacity:0.55;fill:#DAF0F4;}
	.st1{fill:url(#SVGID_1_);}
	.st2{fill:url(#SVGID_2_);}
	.st3{fill:url(#SVGID_3_);}
	.st4{fill:url(#SVGID_4_);}
	.st5{fill:url(#SVGID_5_);}
	.st6{fill:url(#SVGID_6_);}
	.st7{fill:url(#SVGID_7_);}
	.st8{fill:url(#SVGID_8_);}
	.st9{fill:url(#SVGID_9_);}
	.st10{fill:url(#SVGID_10_);}
	.st11{fill:url(#SVGID_11_);}
	.st12{fill:url(#SVGID_12_);}
	.st13{fill:url(#SVGID_13_);}
	.st14{fill:url(#SVGID_14_);}
	.st15{fill:url(#SVGID_15_);}
	.st16{fill:url(#SVGID_16_);}
	.st17{fill:url(#SVGID_17_);}
	.st18{fill:url(#SVGID_18_);}
	.st19{fill:url(#SVGID_19_);}
	.st20{fill:url(#SVGID_20_);}
	.st21{fill:url(#SVGID_21_);}
	.st22{fill:url(#SVGID_22_);}
	.st23{fill:url(#SVGID_23_);}
	.st24{fill:url(#SVGID_24_);}
	.st25{fill:url(#SVGID_25_);}
	.st26{fill:url(#SVGID_26_);}
	.st27{fill:url(#SVGID_27_);}
	.st28{clip-path:url(#SVGID_29_);fill:url(#SVGID_30_);}
	.st29{clip-path:url(#SVGID_29_);fill:url(#SVGID_31_);}
	.st30{enable-background:new    ;}
	.st31{fill:url(#SVGID_32_);}
	.st32{fill:url(#SVGID_33_);}
	.st33{fill:url(#SVGID_34_);}
	.st34{fill:url(#SVGID_35_);}
	.st35{fill:url(#SVGID_36_);}
	.st36{fill:url(#SVGID_37_);}
	.st37{fill:url(#SVGID_38_);}
	.st38{fill:url(#SVGID_39_);}
	.st39{fill:none;stroke:url(#SVGID_40_);stroke-width:5.6693;stroke-miterlimit:10;}
	.st40{fill:url(#SVGID_41_);}
	.st41{fill:none;stroke:url(#SVGID_42_);stroke-width:2.8347;stroke-miterlimit:10;}
	.st42{fill:none;stroke:url(#SVGID_43_);stroke-width:2.8347;stroke-miterlimit:10;}
	.st43{fill:none;stroke:url(#SVGID_44_);stroke-width:2.8347;stroke-miterlimit:10;}
	.st44{fill:url(#SVGID_45_);}
	.st45{fill:url(#SVGID_46_);}
	.st46{fill:url(#SVGID_47_);}
	.st47{fill:url(#SVGID_48_);}
	.st48{fill:url(#SVGID_49_);}
	.st49{fill:url(#SVGID_50_);}
	.st50{fill:url(#SVGID_51_);}
	.st51{fill:url(#SVGID_52_);}
	.st52{fill:url(#SVGID_53_);}
	.st53{fill:url(#SVGID_54_);}
	.st54{fill:url(#SVGID_55_);}
	.st55{fill:url(#SVGID_56_);}
	.st56{fill:url(#SVGID_57_);}
	.st57{fill:url(#SVGID_58_);}
	.st58{fill:url(#SVGID_59_);}
	.st59{fill:url(#SVGID_60_);}
	.st60{fill:url(#SVGID_61_);}
	.st61{fill:url(#SVGID_62_);}
	.st62{fill:url(#SVGID_63_);}
	.st63{fill:url(#SVGID_64_);}
	.st64{fill:url(#SVGID_65_);}
	.st65{fill:url(#SVGID_66_);}
	.st66{fill:url(#SVGID_67_);}
	.st67{fill:url(#SVGID_68_);}
	.st68{fill:url(#SVGID_69_);}
	.st69{fill:url(#SVGID_70_);}
	.st70{fill:url(#SVGID_71_);}
	.st71{fill:url(#SVGID_72_);}
	.st72{fill:url(#SVGID_73_);}
	.st73{fill:url(#SVGID_74_);}
	.st74{fill:url(#SVGID_75_);}
	.st75{fill:url(#SVGID_76_);}
	.st76{fill:url(#SVGID_77_);}
	.st77{fill:url(#SVGID_78_);}
	.st78{fill:url(#SVGID_79_);}
	.st79{fill:url(#SVGID_80_);}
	.st80{fill:url(#SVGID_81_);}
	.st81{fill:url(#SVGID_82_);}
	.st82{fill:url(#SVGID_83_);}
	.st83{fill:url(#SVGID_84_);}
	.st84{fill:url(#SVGID_85_);}
	.st85{fill:url(#SVGID_86_);}
	.st86{fill:url(#SVGID_87_);}
	.st87{fill:url(#SVGID_88_);}
	.st88{fill:url(#SVGID_89_);}
	.st89{fill:url(#SVGID_90_);}
	.st90{fill:url(#SVGID_91_);}
	.st91{fill:url(#SVGID_92_);}
	.st92{fill:url(#SVGID_93_);}
	.st93{fill:url(#SVGID_94_);}
	.st94{fill:url(#SVGID_95_);}
</style>
<g>
	<path class="st0" d="M0.17,113.07l23.33,105.28c3.16,14.28,18.45,23.63,34.36,21.02l537.26-111.34V0H0.17V113.07z"/>
	<g>
		<linearGradient id="SVGID_1_" gradientUnits="userSpaceOnUse" x1="144.5943" y1="101.7718" x2="139.241" y2="109.379">
			<stop  offset="0.1456" style="stop-color:#8ED2C7"/>
			<stop  offset="1" style="stop-color:#40B9A6"/>
		</linearGradient>
		<circle class="st1" cx="141.82" cy="105.72" r="4.03"/>
		<linearGradient id="SVGID_2_" gradientUnits="userSpaceOnUse" x1="132.8651" y1="144.2203" x2="118.0959" y2="181.9954">
			<stop  offset="0" style="stop-color:#FEE067"/>
			<stop  offset="1" style="stop-color:#FEC44B"/>
		</linearGradient>
		<path class="st2" d="M112.14,164.77c0,10.65,8.63,19.28,19.28,19.28V145.5C120.77,145.5,112.14,154.13,112.14,164.77z"/>
		<g>
			
				<linearGradient id="SVGID_3_" gradientUnits="userSpaceOnUse" x1="-222.7333" y1="785.1353" x2="-246.7052" y2="826.2812" gradientTransform="matrix(0 1 -1 0 913.4261 317.4261)">
				<stop  offset="0" style="stop-color:#D8BDDB"/>
				<stop  offset="1" style="stop-color:#8659A4"/>
			</linearGradient>
			<rect x="96.57" y="75.9" class="st3" width="1.5" height="1.5"/>
			
				<linearGradient id="SVGID_4_" gradientUnits="userSpaceOnUse" x1="-225.9505" y1="783.2604" x2="-249.9227" y2="824.4068" gradientTransform="matrix(0 1 -1 0 913.4261 317.4261)">
				<stop  offset="0" style="stop-color:#D8BDDB"/>
				<stop  offset="1" style="stop-color:#8659A4"/>
			</linearGradient>
			<rect x="103.97" y="75.9" class="st4" width="1.5" height="1.5"/>
			
				<linearGradient id="SVGID_5_" gradientUnits="userSpaceOnUse" x1="-229.1681" y1="781.3864" x2="-253.14" y2="822.5322" gradientTransform="matrix(0 1 -1 0 913.4261 317.4261)">
				<stop  offset="0" style="stop-color:#D8BDDB"/>
				<stop  offset="1" style="stop-color:#8659A4"/>
			</linearGradient>
			<rect x="111.37" y="75.9" class="st5" width="1.5" height="1.5"/>
			
				<linearGradient id="SVGID_6_" gradientUnits="userSpaceOnUse" x1="-232.3855" y1="779.5118" x2="-256.3574" y2="820.6576" gradientTransform="matrix(0 1 -1 0 913.4261 317.4261)">
				<stop  offset="0" style="stop-color:#D8BDDB"/>
				<stop  offset="1" style="stop-color:#8659A4"/>
			</linearGradient>
			<rect x="118.76" y="75.9" class="st6" width="1.5" height="1.5"/>
			
				<linearGradient id="SVGID_7_" gradientUnits="userSpaceOnUse" x1="-235.6028" y1="777.6371" x2="-259.5751" y2="818.7836" gradientTransform="matrix(0 1 -1 0 913.4261 317.4261)">
				<stop  offset="0" style="stop-color:#D8BDDB"/>
				<stop  offset="1" style="stop-color:#8659A4"/>
			</linearGradient>
			<rect x="126.16" y="75.9" class="st7" width="1.5" height="1.5"/>
			
				<linearGradient id="SVGID_8_" gradientUnits="userSpaceOnUse" x1="-218.6381" y1="787.5214" x2="-242.6098" y2="828.6669" gradientTransform="matrix(0 1 -1 0 913.4261 317.4261)">
				<stop  offset="0" style="stop-color:#D8BDDB"/>
				<stop  offset="1" style="stop-color:#8659A4"/>
			</linearGradient>
			<rect x="96.57" y="81.39" class="st8" width="1.5" height="1.5"/>
			
				<linearGradient id="SVGID_9_" gradientUnits="userSpaceOnUse" x1="-221.8553" y1="785.6465" x2="-245.8273" y2="826.7926" gradientTransform="matrix(0 1 -1 0 913.4261 317.4261)">
				<stop  offset="0" style="stop-color:#D8BDDB"/>
				<stop  offset="1" style="stop-color:#8659A4"/>
			</linearGradient>
			<rect x="103.97" y="81.39" class="st9" width="1.5" height="1.5"/>
			
				<linearGradient id="SVGID_10_" gradientUnits="userSpaceOnUse" x1="-225.0729" y1="783.7723" x2="-249.0446" y2="824.9179" gradientTransform="matrix(0 1 -1 0 913.4261 317.4261)">
				<stop  offset="0" style="stop-color:#D8BDDB"/>
				<stop  offset="1" style="stop-color:#8659A4"/>
			</linearGradient>
			<rect x="111.37" y="81.39" class="st10" width="1.5" height="1.5"/>
			
				<linearGradient id="SVGID_11_" gradientUnits="userSpaceOnUse" x1="-228.2903" y1="781.8978" x2="-252.262" y2="823.0435" gradientTransform="matrix(0 1 -1 0 913.4261 317.4261)">
				<stop  offset="0" style="stop-color:#D8BDDB"/>
				<stop  offset="1" style="stop-color:#8659A4"/>
			</linearGradient>
			<rect x="118.76" y="81.39" class="st11" width="1.5" height="1.5"/>
			
				<linearGradient id="SVGID_12_" gradientUnits="userSpaceOnUse" x1="-231.5076" y1="780.0232" x2="-255.4796" y2="821.1693" gradientTransform="matrix(0 1 -1 0 913.4261 317.4261)">
				<stop  offset="0" style="stop-color:#D8BDDB"/>
				<stop  offset="1" style="stop-color:#8659A4"/>
			</linearGradient>
			<rect x="126.16" y="81.39" class="st12" width="1.5" height="1.5"/>
			
				<linearGradient id="SVGID_13_" gradientUnits="userSpaceOnUse" x1="-214.5426" y1="789.9072" x2="-238.5146" y2="831.0532" gradientTransform="matrix(0 1 -1 0 913.4261 317.4261)">
				<stop  offset="0" style="stop-color:#D8BDDB"/>
				<stop  offset="1" style="stop-color:#8659A4"/>
			</linearGradient>
			<rect x="96.57" y="86.87" class="st13" width="1.5" height="1.5"/>
			
				<linearGradient id="SVGID_14_" gradientUnits="userSpaceOnUse" x1="-217.7599" y1="788.0323" x2="-241.7321" y2="829.1789" gradientTransform="matrix(0 1 -1 0 913.4261 317.4261)">
				<stop  offset="0" style="stop-color:#D8BDDB"/>
				<stop  offset="1" style="stop-color:#8659A4"/>
			</linearGradient>
			<rect x="103.97" y="86.87" class="st14" width="1.5" height="1.5"/>
			
				<linearGradient id="SVGID_15_" gradientUnits="userSpaceOnUse" x1="-220.9775" y1="786.1581" x2="-244.9495" y2="827.3042" gradientTransform="matrix(0 1 -1 0 913.4261 317.4261)">
				<stop  offset="0" style="stop-color:#D8BDDB"/>
				<stop  offset="1" style="stop-color:#8659A4"/>
			</linearGradient>
			<rect x="111.37" y="86.87" class="st15" width="1.5" height="1.5"/>
			
				<linearGradient id="SVGID_16_" gradientUnits="userSpaceOnUse" x1="-224.1949" y1="784.2837" x2="-248.1668" y2="825.4296" gradientTransform="matrix(0 1 -1 0 913.4261 317.4261)">
				<stop  offset="0" style="stop-color:#D8BDDB"/>
				<stop  offset="1" style="stop-color:#8659A4"/>
			</linearGradient>
			<rect x="118.76" y="86.87" class="st16" width="1.5" height="1.5"/>
			
				<linearGradient id="SVGID_17_" gradientUnits="userSpaceOnUse" x1="-227.4123" y1="782.4091" x2="-251.3846" y2="823.5557" gradientTransform="matrix(0 1 -1 0 913.4261 317.4261)">
				<stop  offset="0" style="stop-color:#D8BDDB"/>
				<stop  offset="1" style="stop-color:#8659A4"/>
			</linearGradient>
			<rect x="126.16" y="86.87" class="st17" width="1.5" height="1.5"/>
		</g>
		<g>
			
				<linearGradient id="SVGID_18_" gradientUnits="userSpaceOnUse" x1="-207.2867" y1="696.5742" x2="-215.8598" y2="731.4382" gradientTransform="matrix(0 1 -1 0 806.5369 395.5573)">
				<stop  offset="0" style="stop-color:#D8BDDB"/>
				<stop  offset="1" style="stop-color:#8659A4"/>
			</linearGradient>
			<polygon class="st18" points="95.24,184.71 95.24,183.03 92.9,183.03 92.9,180.69 91.22,180.69 91.22,183.03 88.88,183.03 
				88.88,184.71 91.22,184.71 91.22,187.05 92.9,187.05 92.9,184.71 			"/>
			
				<linearGradient id="SVGID_19_" gradientUnits="userSpaceOnUse" x1="-210.3201" y1="695.8281" x2="-218.8933" y2="730.6924" gradientTransform="matrix(0 1 -1 0 806.5369 395.5573)">
				<stop  offset="0" style="stop-color:#D8BDDB"/>
				<stop  offset="1" style="stop-color:#8659A4"/>
			</linearGradient>
			<polygon class="st19" points="105.98,184.71 108.32,184.71 108.32,183.03 105.98,183.03 105.98,180.69 104.3,180.69 
				104.3,183.03 101.96,183.03 101.96,184.71 104.3,184.71 104.3,187.05 105.98,187.05 			"/>
		</g>
		<g>
			<g>
				
					<linearGradient id="SVGID_20_" gradientUnits="userSpaceOnUse" x1="340.204" y1="0.342" x2="346.4348" y2="6.8078" gradientTransform="matrix(0.8819 -0.4714 0.4714 0.8819 -151.9397 296.0824)">
					<stop  offset="0" style="stop-color:#B997C7"/>
					<stop  offset="0.4147" style="stop-color:#D8BDDB"/>
					<stop  offset="1" style="stop-color:#8659A4"/>
				</linearGradient>
				<path class="st20" d="M152.9,120.83l-8.85,29.18c-0.24,0.8,1.54,2.05,3.99,2.8c2.45,0.74,4.63,0.7,4.87-0.11l8.85-29.18
					L152.9,120.83z"/>
				
					<linearGradient id="SVGID_21_" gradientUnits="userSpaceOnUse" x1="298.5186" y1="95.3708" x2="295.368" y2="114.4776" gradientTransform="matrix(-0.9562 0.2927 0.2927 0.9562 414.2346 -57.6666)">
					<stop  offset="0" style="stop-color:#D8BDDB"/>
					<stop  offset="1" style="stop-color:#8659A4"/>
				</linearGradient>
				<path class="st21" d="M161.77,123.52c-0.24,0.8-2.43,0.85-4.87,0.11c-2.45-0.74-4.24-1.99-3.99-2.8
					c0.24-0.8,2.43-0.85,4.87-0.11C160.23,121.47,162.02,122.72,161.77,123.52z"/>
			</g>
		</g>
		<g>
			
				<linearGradient id="SVGID_22_" gradientUnits="userSpaceOnUse" x1="-3.7405" y1="117.1158" x2="3.2989" y2="93.5779" gradientTransform="matrix(0.9532 0.3024 -0.3024 0.9532 129.8305 26.8494)">
				<stop  offset="0" style="stop-color:#FEC44B"/>
				<stop  offset="1" style="stop-color:#FEE067"/>
			</linearGradient>
			<path class="st22" d="M121.11,122.71L89.1,110.12l-12.16,28.34L121.11,122.71z M83.2,133.24l7.83-18.44l20.69,8.21l-1.68,0.35
				l-25.66,9.44L83.2,133.24z"/>
			
				<linearGradient id="SVGID_23_" gradientUnits="userSpaceOnUse" x1="2.3865" y1="92.3104" x2="-0.5802" y2="99.4798" gradientTransform="matrix(0.9532 0.3024 -0.3024 0.9532 129.8305 26.8494)">
				<stop  offset="0" style="stop-color:#F68942"/>
				<stop  offset="1" style="stop-color:#FBAC46"/>
			</linearGradient>
			<polygon class="st23" points="90.97,117.07 108.33,124.01 111.72,123.02 91.03,114.81 83.2,133.24 84.37,132.81 			"/>
			
				<linearGradient id="SVGID_24_" gradientUnits="userSpaceOnUse" x1="-202.7225" y1="56.7022" x2="-183.9905" y2="56.7022" gradientTransform="matrix(0.6396 0.7687 -0.7687 0.6396 266.3709 244.5612)">
				<stop  offset="0" style="stop-color:#F68942"/>
				<stop  offset="1" style="stop-color:#FBAC46"/>
			</linearGradient>
			<polygon class="st24" points="120.98,126.18 121.11,122.71 76.94,138.46 77.32,141.93 			"/>
		</g>
		<g>
			
				<linearGradient id="SVGID_25_" gradientUnits="userSpaceOnUse" x1="674.5501" y1="402.8589" x2="700.9323" y2="402.8589" gradientTransform="matrix(0.9802 -0.1981 -0.1981 -0.9802 -460.4086 707.9132)">
				<stop  offset="0" style="stop-color:#AA84BC"/>
				<stop  offset="1" style="stop-color:#7F56A1"/>
			</linearGradient>
			<polygon class="st25" points="128.85,195.86 150.76,193.57 117.06,160.01 			"/>
			
				<linearGradient id="SVGID_26_" gradientUnits="userSpaceOnUse" x1="403.5164" y1="345.7676" x2="415.4171" y2="386.7587" gradientTransform="matrix(0.5997 -0.8002 0.8002 0.5997 -397.3919 283.8399)">
				<stop  offset="0" style="stop-color:#D8BDDB"/>
				<stop  offset="1" style="stop-color:#8659A4"/>
			</linearGradient>
			<polygon class="st26" points="150.76,193.57 154.63,166.73 117.06,160.01 			"/>
			
				<radialGradient id="SVGID_27_" cx="154.7971" cy="173.4647" r="24.9328" gradientTransform="matrix(0.6721 0.7405 -0.5367 0.4872 143.8568 -25.6615)" gradientUnits="userSpaceOnUse">
				<stop  offset="0.1411" style="stop-color:#413755"/>
				<stop  offset="0.6946" style="stop-color:#BEBBC5;stop-opacity:0.3556"/>
				<stop  offset="1" style="stop-color:#FFFFFF;stop-opacity:0"/>
			</radialGradient>
			<polygon class="st27" points="150.76,193.57 154.63,166.73 117.06,160.01 			"/>
		</g>
		<g>
			<g>
				<defs>
					
						<ellipse id="SVGID_28_" transform="matrix(0.1561 -0.9877 0.9877 0.1561 -20.9714 290.706)" cx="159.65" cy="157.63" rx="19.93" ry="19.93"/>
				</defs>
				<clipPath id="SVGID_29_">
					<use xlink:href="#SVGID_28_"  style="overflow:visible;"/>
				</clipPath>
				
					<radialGradient id="SVGID_30_" cx="255.3384" cy="90.9764" r="29.566" gradientTransform="matrix(0.9788 -0.205 0.205 0.9788 -114.1205 114.4507)" gradientUnits="userSpaceOnUse">
					<stop  offset="0" style="stop-color:#FFDB6A"/>
					<stop  offset="0.0435" style="stop-color:#FFD76D"/>
					<stop  offset="0.2156" style="stop-color:#FFCC75"/>
					<stop  offset="0.3493" style="stop-color:#FEC877"/>
					<stop  offset="0.4325" style="stop-color:#FCBB68"/>
					<stop  offset="0.6849" style="stop-color:#F79540"/>
					<stop  offset="0.8094" style="stop-color:#F68732"/>
					<stop  offset="1" style="stop-color:#F9A062"/>
				</radialGradient>
				<circle class="st28" cx="159.65" cy="157.63" r="19.93"/>
				
					<radialGradient id="SVGID_31_" cx="256.3058" cy="91.1552" r="32.885" gradientTransform="matrix(0.9788 -0.205 0.205 0.9788 -114.1205 114.4507)" gradientUnits="userSpaceOnUse">
					<stop  offset="0" style="stop-color:#FFFFFC"/>
					<stop  offset="0.0329" style="stop-color:#FFFDEF;stop-opacity:0.9671"/>
					<stop  offset="0.127" style="stop-color:#FFF9D1;stop-opacity:0.873"/>
					<stop  offset="0.2283" style="stop-color:#FEF6B8;stop-opacity:0.7717"/>
					<stop  offset="0.3366" style="stop-color:#FEF4A3;stop-opacity:0.6634"/>
					<stop  offset="0.4545" style="stop-color:#FEF292;stop-opacity:0.5455"/>
					<stop  offset="0.5868" style="stop-color:#FEF187;stop-opacity:0.4132"/>
					<stop  offset="0.7454" style="stop-color:#FEF080;stop-opacity:0.2546"/>
					<stop  offset="1" style="stop-color:#FEF07D;stop-opacity:0"/>
				</radialGradient>
				<circle class="st29" cx="159.65" cy="157.63" r="19.93"/>
			</g>
		</g>
		<g>
			<g class="st30">
				<g>
					<linearGradient id="SVGID_32_" gradientUnits="userSpaceOnUse" x1="140.2253" y1="26.109" x2="107.5313" y2="105.8679">
						<stop  offset="0.1456" style="stop-color:#8ED2C7"/>
						<stop  offset="1" style="stop-color:#40B9A6"/>
					</linearGradient>
					<path class="st31" d="M125.39,24.24l3.13,4.54c-6.19,3.92-7.74,12.16-3.46,18.37c3.08,4.47,8.37,6.69,13.39,6.11
						c1.96-0.22,3.87-0.87,5.61-1.96l3.13,4.54c-2.43,1.54-5.13,2.45-7.87,2.76c-7.05,0.8-14.46-2.31-18.79-8.58
						C114.52,41.31,116.7,29.74,125.39,24.24z"/>
				</g>
				<linearGradient id="SVGID_33_" gradientUnits="userSpaceOnUse" x1="123.7712" y1="65.702" x2="125.6151" y2="29.1949">
					<stop  offset="0.0132" style="stop-color:#67C6B5"/>
					<stop  offset="1" style="stop-color:#06A488"/>
				</linearGradient>
				<path class="st32" d="M126.59,32.18l1.93-3.39c-1.82,1.15-3.24,2.68-4.23,4.42l-1.93,3.39
					C123.35,34.86,124.77,33.33,126.59,32.18z"/>
				<linearGradient id="SVGID_34_" gradientUnits="userSpaceOnUse" x1="130.338" y1="66.0336" x2="132.1818" y2="29.5266">
					<stop  offset="0.0132" style="stop-color:#67C6B5"/>
					<stop  offset="1" style="stop-color:#06A488"/>
				</linearGradient>
				<path class="st33" d="M139.32,58.6c-7.05,0.8-14.46-2.31-18.79-8.58c-4.24-6.15-4.41-13.72-1.08-19.57l-1.93,3.39
					c-3.32,5.86-3.16,13.42,1.08,19.57c4.33,6.27,11.74,9.38,18.79,8.58c2.74-0.31,5.44-1.22,7.87-2.76l1.93-3.39
					C144.75,57.39,142.06,58.29,139.32,58.6z"/>
			</g>
		</g>
		<g>
			<g>
				
					<linearGradient id="SVGID_35_" gradientUnits="userSpaceOnUse" x1="95.8513" y1="154.8982" x2="145.629" y2="154.3877" gradientTransform="matrix(0.7071 0.7071 -0.7071 0.7071 199.8892 -92.725)">
					<stop  offset="0" style="stop-color:#B997C7"/>
					<stop  offset="0.4147" style="stop-color:#D8BDDB"/>
					<stop  offset="1" style="stop-color:#8659A4"/>
				</linearGradient>
				<path class="st34" d="M164.37,78.49l-6.56,6.56c-3.08,3.08,2.26,13.42,11.92,23.08c9.67,9.67,20,15,23.08,11.92l6.56-6.56
					L164.37,78.49z"/>
				
					<linearGradient id="SVGID_36_" gradientUnits="userSpaceOnUse" x1="126.0354" y1="143.2859" x2="44.5458" y2="187.5688" gradientTransform="matrix(0.7071 0.7071 -0.7071 0.7071 199.8892 -92.725)">
					<stop  offset="0" style="stop-color:#D8BDDB"/>
					<stop  offset="1" style="stop-color:#8659A4"/>
				</linearGradient>
				<path class="st35" d="M199.38,113.49c-3.08,3.08-13.42-2.26-23.08-11.92c-9.67-9.67-15-20-11.92-23.08
					c3.08-3.08,13.42,2.26,23.08,11.92C197.12,100.08,202.46,110.41,199.38,113.49z"/>
				
					<radialGradient id="SVGID_37_" cx="106.6947" cy="220.4529" r="26.0064" gradientTransform="matrix(0.7071 0.7071 -0.3094 0.3094 164.2736 -57.1095)" gradientUnits="userSpaceOnUse">
					<stop  offset="0" style="stop-color:#413755"/>
					<stop  offset="0.6444" style="stop-color:#BEBBC5;stop-opacity:0.3556"/>
					<stop  offset="1" style="stop-color:#FFFFFF;stop-opacity:0"/>
				</radialGradient>
				<path class="st36" d="M199.38,113.49c-3.08,3.08-13.42-2.26-23.08-11.92c-9.67-9.67-15-20-11.92-23.08
					c3.08-3.08,13.42,2.26,23.08,11.92C197.12,100.08,202.46,110.41,199.38,113.49z"/>
			</g>
			<g>
				
					<linearGradient id="SVGID_38_" gradientUnits="userSpaceOnUse" x1="-35.9109" y1="148.7619" x2="-2.1816" y2="148.4159" gradientTransform="matrix(0.7071 0.7071 -0.7071 0.7071 289.6512 -10.3552)">
					<stop  offset="0" style="stop-color:#B997C7"/>
					<stop  offset="0.4147" style="stop-color:#D8BDDB"/>
					<stop  offset="1" style="stop-color:#8659A4"/>
				</linearGradient>
				<path class="st37" d="M163.29,65.32l-4.45,4.45c-2.09,2.09,1.53,9.09,8.08,15.64c6.55,6.55,13.55,10.17,15.64,8.08l4.45-4.45
					L163.29,65.32z"/>
				
					<linearGradient id="SVGID_39_" gradientUnits="userSpaceOnUse" x1="-15.4582" y1="140.8934" x2="-70.6756" y2="170.8994" gradientTransform="matrix(0.7071 0.7071 -0.7071 0.7071 289.6512 -10.3552)">
					<stop  offset="0" style="stop-color:#D8BDDB"/>
					<stop  offset="1" style="stop-color:#8659A4"/>
				</linearGradient>
				<path class="st38" d="M187.01,89.03c-2.09,2.09-9.09-1.53-15.64-8.08c-6.55-6.55-10.17-13.55-8.08-15.64
					c2.09-2.09,9.09,1.53,15.64,8.08C185.48,79.94,189.1,86.95,187.01,89.03z"/>
			</g>
		</g>
	</g>
	<g>
		
			<linearGradient id="SVGID_40_" gradientUnits="userSpaceOnUse" x1="314.0585" y1="783.4845" x2="342.6" y2="783.4845" gradientTransform="matrix(-0.7071 0.7071 -0.7071 -0.7071 1308.0715 434.1312)">
			<stop  offset="0" style="stop-color:#8659A4"/>
			<stop  offset="1" style="stop-color:#D8BDDB"/>
		</linearGradient>
		<rect x="511.95" y="107.73" class="st39" width="19.91" height="9.12"/>
		<radialGradient id="SVGID_41_" cx="530.3076" cy="114.2216" r="12.8069" gradientUnits="userSpaceOnUse">
			<stop  offset="0" style="stop-color:#413755"/>
			<stop  offset="0.6444" style="stop-color:#BEBBC5;stop-opacity:0.3556"/>
			<stop  offset="1" style="stop-color:#FFFFFF;stop-opacity:0"/>
		</radialGradient>
		<path class="st40" d="M532.78,117.77h-21.75v-10.96h21.75V117.77z M512.88,115.93h18.07v-7.27h-18.07V115.93z"/>
		<g>
			<linearGradient id="SVGID_42_" gradientUnits="userSpaceOnUse" x1="493.1977" y1="42.9238" x2="536.0868" y2="42.9238">
				<stop  offset="0" style="stop-color:#FBAC46"/>
				<stop  offset="1" style="stop-color:#F68942"/>
			</linearGradient>
			<polyline class="st41" points="535.28,44.52 530.69,41.33 526.11,44.52 521.52,41.33 516.94,44.52 512.35,41.33 507.77,44.52 
				503.18,41.33 498.59,44.52 494.01,41.33 			"/>
			<linearGradient id="SVGID_43_" gradientUnits="userSpaceOnUse" x1="493.1977" y1="38.0185" x2="536.0868" y2="38.0185">
				<stop  offset="0" style="stop-color:#FBAC46"/>
				<stop  offset="1" style="stop-color:#F68942"/>
			</linearGradient>
			<polyline class="st42" points="535.28,39.61 530.69,36.42 526.11,39.61 521.52,36.42 516.94,39.61 512.35,36.42 507.77,39.61 
				503.18,36.42 498.59,39.61 494.01,36.42 			"/>
			<linearGradient id="SVGID_44_" gradientUnits="userSpaceOnUse" x1="493.1977" y1="33.1131" x2="536.0868" y2="33.1131">
				<stop  offset="0" style="stop-color:#FBAC46"/>
				<stop  offset="1" style="stop-color:#F68942"/>
			</linearGradient>
			<polyline class="st43" points="535.28,34.71 530.69,31.52 526.11,34.71 521.52,31.52 516.94,34.71 512.35,31.52 507.77,34.71 
				503.18,31.52 498.59,34.71 494.01,31.52 			"/>
		</g>
		<g>
			
				<linearGradient id="SVGID_45_" gradientUnits="userSpaceOnUse" x1="639.1844" y1="182.6528" x2="647.2429" y2="182.6528" gradientTransform="matrix(-1 0 0 1 1181.1572 0)">
				<stop  offset="0.1456" style="stop-color:#8ED2C7"/>
				<stop  offset="1" style="stop-color:#40B9A6"/>
			</linearGradient>
			<path class="st44" d="M541.97,182.65c0-2.23-1.8-4.03-4.03-4.03s-4.03,1.8-4.03,4.03c0,2.23,1.8,4.03,4.03,4.03
				S541.97,184.88,541.97,182.65z"/>
			
				<linearGradient id="SVGID_46_" gradientUnits="userSpaceOnUse" x1="639.1844" y1="174.2253" x2="647.2429" y2="174.2253" gradientTransform="matrix(-1 0 0 1 1181.1572 0)">
				<stop  offset="0.1456" style="stop-color:#8ED2C7"/>
				<stop  offset="1" style="stop-color:#40B9A6"/>
			</linearGradient>
			<circle class="st45" cx="537.94" cy="174.23" r="4.03"/>
			
				<linearGradient id="SVGID_47_" gradientUnits="userSpaceOnUse" x1="639.1844" y1="165.7979" x2="647.2429" y2="165.7979" gradientTransform="matrix(-1 0 0 1 1181.1572 0)">
				<stop  offset="0.1456" style="stop-color:#8ED2C7"/>
				<stop  offset="1" style="stop-color:#40B9A6"/>
			</linearGradient>
			<path class="st46" d="M541.97,165.8c0-2.23-1.8-4.03-4.03-4.03s-4.03,1.8-4.03,4.03c0,2.23,1.8,4.03,4.03,4.03
				S541.97,168.02,541.97,165.8z"/>
			
				<linearGradient id="SVGID_48_" gradientUnits="userSpaceOnUse" x1="639.1844" y1="157.3704" x2="647.2429" y2="157.3704" gradientTransform="matrix(-1 0 0 1 1181.1572 0)">
				<stop  offset="0.1456" style="stop-color:#8ED2C7"/>
				<stop  offset="1" style="stop-color:#40B9A6"/>
			</linearGradient>
			<circle class="st47" cx="537.94" cy="157.37" r="4.03"/>
		</g>
		<g>
			<linearGradient id="SVGID_49_" gradientUnits="userSpaceOnUse" x1="453.4917" y1="134.8314" x2="395.5697" y2="168.1459">
				<stop  offset="0.0132" style="stop-color:#67C6B5"/>
				<stop  offset="1" style="stop-color:#06A488"/>
			</linearGradient>
			<rect x="413.35" y="156.88" class="st48" width="1.32" height="1.32"/>
			<linearGradient id="SVGID_50_" gradientUnits="userSpaceOnUse" x1="455.112" y1="137.6495" x2="397.1908" y2="170.9637">
				<stop  offset="0.0132" style="stop-color:#67C6B5"/>
				<stop  offset="1" style="stop-color:#06A488"/>
			</linearGradient>
			<rect x="419.87" y="156.88" class="st49" width="1.32" height="1.32"/>
			<linearGradient id="SVGID_51_" gradientUnits="userSpaceOnUse" x1="456.7328" y1="140.4674" x2="398.8115" y2="173.7816">
				<stop  offset="0.0132" style="stop-color:#67C6B5"/>
				<stop  offset="1" style="stop-color:#06A488"/>
			</linearGradient>
			<rect x="426.39" y="156.88" class="st50" width="1.32" height="1.32"/>
			<linearGradient id="SVGID_52_" gradientUnits="userSpaceOnUse" x1="458.3536" y1="143.2853" x2="400.4324" y2="176.5994">
				<stop  offset="0.0132" style="stop-color:#67C6B5"/>
				<stop  offset="1" style="stop-color:#06A488"/>
			</linearGradient>
			<rect x="432.91" y="156.88" class="st51" width="1.32" height="1.32"/>
			<linearGradient id="SVGID_53_" gradientUnits="userSpaceOnUse" x1="459.9745" y1="146.1032" x2="402.0529" y2="179.4175">
				<stop  offset="0.0132" style="stop-color:#67C6B5"/>
				<stop  offset="1" style="stop-color:#06A488"/>
			</linearGradient>
			<rect x="439.43" y="156.88" class="st52" width="1.32" height="1.32"/>
			<linearGradient id="SVGID_54_" gradientUnits="userSpaceOnUse" x1="461.5953" y1="148.9211" x2="403.674" y2="182.2353">
				<stop  offset="0.0132" style="stop-color:#67C6B5"/>
				<stop  offset="1" style="stop-color:#06A488"/>
			</linearGradient>
			<rect x="445.95" y="156.88" class="st53" width="1.32" height="1.32"/>
			<linearGradient id="SVGID_55_" gradientUnits="userSpaceOnUse" x1="463.216" y1="151.739" x2="405.2948" y2="185.0532">
				<stop  offset="0.0132" style="stop-color:#67C6B5"/>
				<stop  offset="1" style="stop-color:#06A488"/>
			</linearGradient>
			<rect x="452.47" y="156.88" class="st54" width="1.32" height="1.32"/>
			<linearGradient id="SVGID_56_" gradientUnits="userSpaceOnUse" x1="455.5815" y1="138.4645" x2="397.6595" y2="171.7791">
				<stop  offset="0.0132" style="stop-color:#67C6B5"/>
				<stop  offset="1" style="stop-color:#06A488"/>
			</linearGradient>
			<rect x="413.35" y="161.71" class="st55" width="1.32" height="1.32"/>
			<linearGradient id="SVGID_57_" gradientUnits="userSpaceOnUse" x1="457.2018" y1="141.2827" x2="399.2805" y2="174.5968">
				<stop  offset="0.0132" style="stop-color:#67C6B5"/>
				<stop  offset="1" style="stop-color:#06A488"/>
			</linearGradient>
			<rect x="419.87" y="161.71" class="st56" width="1.32" height="1.32"/>
			<linearGradient id="SVGID_58_" gradientUnits="userSpaceOnUse" x1="458.8225" y1="144.1006" x2="400.9012" y2="177.4148">
				<stop  offset="0.0132" style="stop-color:#67C6B5"/>
				<stop  offset="1" style="stop-color:#06A488"/>
			</linearGradient>
			<rect x="426.39" y="161.71" class="st57" width="1.32" height="1.32"/>
			<linearGradient id="SVGID_59_" gradientUnits="userSpaceOnUse" x1="460.4433" y1="146.9185" x2="402.5221" y2="180.2326">
				<stop  offset="0.0132" style="stop-color:#67C6B5"/>
				<stop  offset="1" style="stop-color:#06A488"/>
			</linearGradient>
			<rect x="432.91" y="161.71" class="st58" width="1.32" height="1.32"/>
			<linearGradient id="SVGID_60_" gradientUnits="userSpaceOnUse" x1="462.0642" y1="149.7364" x2="404.1426" y2="183.0507">
				<stop  offset="0.0132" style="stop-color:#67C6B5"/>
				<stop  offset="1" style="stop-color:#06A488"/>
			</linearGradient>
			<rect x="439.43" y="161.71" class="st59" width="1.32" height="1.32"/>
			<linearGradient id="SVGID_61_" gradientUnits="userSpaceOnUse" x1="463.685" y1="152.5543" x2="405.7637" y2="185.8685">
				<stop  offset="0.0132" style="stop-color:#67C6B5"/>
				<stop  offset="1" style="stop-color:#06A488"/>
			</linearGradient>
			<rect x="445.95" y="161.71" class="st60" width="1.32" height="1.32"/>
			<linearGradient id="SVGID_62_" gradientUnits="userSpaceOnUse" x1="465.3058" y1="155.3722" x2="407.3845" y2="188.6864">
				<stop  offset="0.0132" style="stop-color:#67C6B5"/>
				<stop  offset="1" style="stop-color:#06A488"/>
			</linearGradient>
			<rect x="452.47" y="161.71" class="st61" width="1.32" height="1.32"/>
		</g>
		<g class="st30">
			<linearGradient id="SVGID_63_" gradientUnits="userSpaceOnUse" x1="474.6808" y1="125.7726" x2="457.8052" y2="129.2521">
				<stop  offset="0.1456" style="stop-color:#8ED2C7"/>
				<stop  offset="1" style="stop-color:#40B9A6"/>
			</linearGradient>
			<polygon class="st62" points="455.11,130.94 458.54,114.65 479.37,123.68 475.94,139.96 			"/>
			<radialGradient id="SVGID_64_" cx="454.3294" cy="113.7582" r="22.7459" gradientUnits="userSpaceOnUse">
				<stop  offset="0" style="stop-color:#4B5056"/>
				<stop  offset="0.5067" style="stop-color:#BBBDBF;stop-opacity:0.3932"/>
				<stop  offset="0.8351" style="stop-color:#FFFFFF;stop-opacity:0"/>
			</radialGradient>
			<polygon class="st63" points="455.11,130.94 458.54,114.65 479.37,123.68 475.94,139.96 			"/>
			
				<linearGradient id="SVGID_65_" gradientUnits="userSpaceOnUse" x1="1896.0228" y1="-129.3924" x2="1873.6534" y2="-73.0213" gradientTransform="matrix(0.401 -0.174 0.8858 0.3241 -216.1523 483.9753)">
				<stop  offset="0.1456" style="stop-color:#8ED2C7"/>
				<stop  offset="1" style="stop-color:#40B9A6"/>
			</linearGradient>
			<polygon class="st64" points="455.11,130.94 437.22,129.46 440.65,113.17 458.54,114.65 			"/>
			
				<radialGradient id="SVGID_66_" cx="449.2052" cy="116.6359" r="22.7459" gradientTransform="matrix(0.9983 -0.0587 0.0246 0.418 -2.0926 94.2628)" gradientUnits="userSpaceOnUse">
				<stop  offset="0" style="stop-color:#4B5056"/>
				<stop  offset="0.6068" style="stop-color:#BBBDBF;stop-opacity:0.3932"/>
				<stop  offset="1" style="stop-color:#FFFFFF;stop-opacity:0"/>
			</radialGradient>
			<polygon class="st65" points="455.11,130.94 437.22,129.46 440.65,113.17 458.54,114.65 			"/>
			<linearGradient id="SVGID_67_" gradientUnits="userSpaceOnUse" x1="455.0611" y1="141.0689" x2="456.7198" y2="134.1024">
				<stop  offset="0.0132" style="stop-color:#67C6B5"/>
				<stop  offset="1" style="stop-color:#06A488"/>
			</linearGradient>
			<polygon class="st66" points="475.94,139.96 458.04,138.48 437.22,129.46 455.11,130.94 			"/>
		</g>
		<g>
			<g>
				
					<linearGradient id="SVGID_68_" gradientUnits="userSpaceOnUse" x1="211.6935" y1="-93.6335" x2="217.1612" y2="-87.9594" gradientTransform="matrix(-0.9813 -0.1926 -0.1926 0.9813 644.7765 172.3142)">
					<stop  offset="0" style="stop-color:#FBAC46"/>
					<stop  offset="0.224" style="stop-color:#FFCD44"/>
					<stop  offset="1" style="stop-color:#F68942"/>
				</linearGradient>
				<path class="st67" d="M447.27,28.12l14.92,22.21c0.41,0.61-0.77,2.12-2.63,3.37c-1.86,1.25-3.71,1.77-4.12,1.16l-14.92-22.21
					L447.27,28.12z"/>
				
					<linearGradient id="SVGID_69_" gradientUnits="userSpaceOnUse" x1="223.8257" y1="-102.8771" x2="225.6331" y2="-96.25" gradientTransform="matrix(-0.9813 -0.1926 -0.1926 0.9813 644.7765 172.3142)">
					<stop  offset="0" style="stop-color:#FEE067"/>
					<stop  offset="1" style="stop-color:#FEC44B"/>
				</linearGradient>
				<path class="st68" d="M440.52,32.65c0.41,0.61,2.25,0.09,4.12-1.16c1.86-1.25,3.04-2.76,2.63-3.37
					c-0.41-0.61-2.25-0.09-4.12,1.16C441.29,30.53,440.11,32.04,440.52,32.65z"/>
			</g>
			<g>
				
					<linearGradient id="SVGID_70_" gradientUnits="userSpaceOnUse" x1="192.7704" y1="-74.7109" x2="198.2382" y2="-69.0368" gradientTransform="matrix(-0.9813 -0.1926 -0.1926 0.9813 644.7765 172.3142)">
					<stop  offset="0" style="stop-color:#FBAC46"/>
					<stop  offset="0.224" style="stop-color:#FFCD44"/>
					<stop  offset="1" style="stop-color:#F68942"/>
				</linearGradient>
				<path class="st69" d="M462.19,50.33l14.92,22.21c0.41,0.61-0.77,2.12-2.63,3.37c-1.86,1.25-3.71,1.77-4.12,1.16l-14.92-22.21
					L462.19,50.33z"/>
				<radialGradient id="SVGID_71_" cx="460.6711" cy="55.2266" r="12.819" gradientUnits="userSpaceOnUse">
					<stop  offset="0.0981" style="stop-color:#AC6C4B"/>
					<stop  offset="0.6454" style="stop-color:#E0C7BB;stop-opacity:0.3932"/>
					<stop  offset="1" style="stop-color:#FFFFFF;stop-opacity:0"/>
				</radialGradient>
				<path class="st70" d="M462.19,50.33l14.92,22.21c0.41,0.61-0.77,2.12-2.63,3.37c-1.86,1.25-3.71,1.77-4.12,1.16l-14.92-22.21
					L462.19,50.33z"/>
				
					<linearGradient id="SVGID_72_" gradientUnits="userSpaceOnUse" x1="204.9027" y1="-83.9546" x2="206.7101" y2="-77.3275" gradientTransform="matrix(-0.9813 -0.1926 -0.1926 0.9813 644.7765 172.3142)">
					<stop  offset="0" style="stop-color:#FEE067"/>
					<stop  offset="1" style="stop-color:#FEC44B"/>
				</linearGradient>
				<path class="st71" d="M455.44,54.87c0.41,0.61,2.25,0.09,4.12-1.16c1.86-1.25,3.04-2.76,2.63-3.37
					c-0.41-0.61-2.25-0.09-4.12,1.16C456.21,52.75,455.03,54.26,455.44,54.87z"/>
			</g>
		</g>
		<g>
			
				<linearGradient id="SVGID_73_" gradientUnits="userSpaceOnUse" x1="806.6481" y1="80.4425" x2="835.1147" y2="80.4425" gradientTransform="matrix(-0.4845 -0.8748 0.8748 -0.4845 833.7264 906.3935)">
				<stop  offset="0" style="stop-color:#F68942"/>
				<stop  offset="1" style="stop-color:#FBAC46"/>
			</linearGradient>
			<polygon class="st72" points="494.12,164.09 485.29,144.72 528.92,153.1 			"/>
			
				<radialGradient id="SVGID_74_" cx="812.3705" cy="73.644" r="16.1623" gradientTransform="matrix(-0.4845 -0.8748 0.8748 -0.4845 833.7264 906.3935)" gradientUnits="userSpaceOnUse">
				<stop  offset="0.0981" style="stop-color:#AC6C4B"/>
				<stop  offset="0.6454" style="stop-color:#E0C7BB;stop-opacity:0.3932"/>
				<stop  offset="1" style="stop-color:#FFFFFF;stop-opacity:0"/>
			</radialGradient>
			<polygon class="st73" points="494.12,164.09 485.29,144.72 528.92,153.1 			"/>
			
				<linearGradient id="SVGID_75_" gradientUnits="userSpaceOnUse" x1="-206.9041" y1="294.2109" x2="-219.049" y2="278.0177" gradientTransform="matrix(0.8625 0.5061 -0.5061 0.8625 835.0851 5.3867)">
				<stop  offset="0" style="stop-color:#FEE067"/>
				<stop  offset="1" style="stop-color:#FEC44B"/>
			</linearGradient>
			<polygon class="st74" points="485.29,144.72 503.75,132.12 528.92,153.1 			"/>
		</g>
		<g>
			
				<linearGradient id="SVGID_76_" gradientUnits="userSpaceOnUse" x1="1035.1326" y1="412.1212" x2="1062.3794" y2="412.1212" gradientTransform="matrix(-0.1558 -0.9878 -0.9878 0.1558 1100.1794 1020.0281)">
				<stop  offset="0.0132" style="stop-color:#67C6B5"/>
				<stop  offset="1" style="stop-color:#06A488"/>
			</linearGradient>
			<polygon class="st75" points="549.15,54.34 547.75,31.63 511.63,64.92 			"/>
			
				<linearGradient id="SVGID_77_" gradientUnits="userSpaceOnUse" x1="419.5973" y1="56.6069" x2="428.8681" y2="116.4036" gradientTransform="matrix(0.8893 0.4573 -0.4573 0.8893 190.29 -217.5791)">
				<stop  offset="0.1456" style="stop-color:#8ED2C7"/>
				<stop  offset="1" style="stop-color:#40B9A6"/>
			</linearGradient>
			<polygon class="st76" points="547.75,31.63 528.99,34.82 511.63,64.92 			"/>
		</g>
		<g class="st30">
			
				<linearGradient id="SVGID_78_" gradientUnits="userSpaceOnUse" x1="167.2289" y1="152.4257" x2="177.7923" y2="204.6867" gradientTransform="matrix(0.5239 1.0375 -1.2082 0.5137 590.1723 -165.8136)">
				<stop  offset="0" style="stop-color:#F68942"/>
				<stop  offset="1" style="stop-color:#FBAC46"/>
			</linearGradient>
			<polygon class="st77" points="432.84,109.68 498.83,85.89 491.33,103.69 425.34,127.48 			"/>
			
				<linearGradient id="SVGID_79_" gradientUnits="userSpaceOnUse" x1="494.1407" y1="109.0824" x2="471.9098" y2="165.1043" gradientTransform="matrix(1.293 0.1619 -0.2499 1.1464 -134.2313 -135.9607)">
				<stop  offset="0" style="stop-color:#FEE067"/>
				<stop  offset="1" style="stop-color:#FEC44B"/>
			</linearGradient>
			<polygon class="st78" points="432.84,109.68 417.76,106.58 483.75,82.8 498.83,85.89 			"/>
			
				<linearGradient id="SVGID_80_" gradientUnits="userSpaceOnUse" x1="167.2289" y1="152.4257" x2="177.7923" y2="204.6867" gradientTransform="matrix(0.5239 1.0375 -1.2082 0.5137 590.1723 -165.8136)">
				<stop  offset="0" style="stop-color:#F68942"/>
				<stop  offset="1" style="stop-color:#FBAC46"/>
			</linearGradient>
			<polygon class="st79" points="432.84,109.68 498.83,85.89 491.33,103.69 425.34,127.48 			"/>
			
				<linearGradient id="SVGID_81_" gradientUnits="userSpaceOnUse" x1="494.1407" y1="109.0824" x2="471.9098" y2="165.1043" gradientTransform="matrix(1.293 0.1619 -0.2499 1.1464 -134.2313 -135.9607)">
				<stop  offset="0" style="stop-color:#FEE067"/>
				<stop  offset="1" style="stop-color:#FEC44B"/>
			</linearGradient>
			<polygon class="st80" points="432.84,109.68 417.76,106.58 483.75,82.8 498.83,85.89 			"/>
			<radialGradient id="SVGID_82_" cx="475.1198" cy="97.8518" r="25.063" gradientUnits="userSpaceOnUse">
				<stop  offset="0.0981" style="stop-color:#AC6C4B"/>
				<stop  offset="0.6454" style="stop-color:#E0C7BB;stop-opacity:0.3932"/>
				<stop  offset="1" style="stop-color:#FFFFFF;stop-opacity:0"/>
			</radialGradient>
			<polygon class="st81" points="432.84,109.68 498.83,85.89 491.33,103.69 425.34,127.48 			"/>
			<radialGradient id="SVGID_83_" cx="474.2071" cy="100.13" r="25.0631" gradientUnits="userSpaceOnUse">
				<stop  offset="0.0981" style="stop-color:#AC6C4B"/>
				<stop  offset="0.6454" style="stop-color:#E0C7BB;stop-opacity:0.3932"/>
				<stop  offset="1" style="stop-color:#FFFFFF;stop-opacity:0"/>
			</radialGradient>
			<polygon class="st82" points="432.84,109.68 417.76,106.58 483.75,82.8 498.83,85.89 			"/>
			
				<linearGradient id="SVGID_84_" gradientUnits="userSpaceOnUse" x1="173.3046" y1="206.2641" x2="164.0102" y2="212.5772" gradientTransform="matrix(0.5239 1.0375 -1.2082 0.5137 590.1723 -165.8136)">
				<stop  offset="0" style="stop-color:#F68942"/>
				<stop  offset="1" style="stop-color:#FBAC46"/>
			</linearGradient>
			<polygon class="st83" points="425.34,127.48 417.76,106.58 432.84,109.68 			"/>
		</g>
		<g>
			<g class="st30">
				<linearGradient id="SVGID_85_" gradientUnits="userSpaceOnUse" x1="542.5869" y1="73.782" x2="550.3336" y2="112.1079">
					<stop  offset="0" style="stop-color:#F68942"/>
					<stop  offset="1" style="stop-color:#FBAC46"/>
				</linearGradient>
				<polygon class="st84" points="536.21,106.58 545.03,70.91 557.45,82.95 548.62,118.62 				"/>
				
					<linearGradient id="SVGID_86_" gradientUnits="userSpaceOnUse" x1="773.7341" y1="374.2552" x2="759.6617" y2="409.7177" gradientTransform="matrix(0.5647 -0.8253 0.8253 0.5647 -221.3096 503.6956)">
					<stop  offset="0" style="stop-color:#FEE067"/>
					<stop  offset="1" style="stop-color:#FEC44B"/>
				</linearGradient>
				<polygon class="st85" points="536.21,106.58 523.04,110.37 531.87,74.7 545.03,70.91 				"/>
				<linearGradient id="SVGID_87_" gradientUnits="userSpaceOnUse" x1="543.3796" y1="109.3698" x2="532.9244" y2="116.4714">
					<stop  offset="0" style="stop-color:#F68942"/>
					<stop  offset="1" style="stop-color:#FBAC46"/>
				</linearGradient>
				<polygon class="st86" points="548.62,118.62 535.46,122.41 523.04,110.37 536.21,106.58 				"/>
			</g>
		</g>
		<g>
			<g class="st30">
				<linearGradient id="SVGID_88_" gradientUnits="userSpaceOnUse" x1="477.3825" y1="73.107" x2="500.7773" y2="117.7031">
					<stop  offset="0" style="stop-color:#D8BDDB"/>
					<stop  offset="1" style="stop-color:#8659A4"/>
				</linearGradient>
				<polygon class="st87" points="475.94,90.49 480.82,70.38 492.41,81.62 487.53,101.73 				"/>
				
					<linearGradient id="SVGID_89_" gradientUnits="userSpaceOnUse" x1="743.3991" y1="324.5278" x2="734.6815" y2="346.4962" gradientTransform="matrix(0.5647 -0.8253 0.8253 0.5647 -221.3096 503.6956)">
					<stop  offset="0" style="stop-color:#D8BDDB"/>
					<stop  offset="1" style="stop-color:#8659A4"/>
				</linearGradient>
				<polygon class="st88" points="475.94,90.49 463.65,94.03 468.53,73.92 480.82,70.38 				"/>
				<linearGradient id="SVGID_90_" gradientUnits="userSpaceOnUse" x1="473.6867" y1="121.3218" x2="475.8799" y2="94.2718">
					<stop  offset="0" style="stop-color:#D8BDDB"/>
					<stop  offset="1" style="stop-color:#8659A4"/>
				</linearGradient>
				<polygon class="st89" points="487.53,101.73 475.24,105.26 463.65,94.03 475.94,90.49 				"/>
			</g>
		</g>
		<g>
			<g class="st30">
				<g>
					
						<linearGradient id="SVGID_91_" gradientUnits="userSpaceOnUse" x1="681.5" y1="509.2071" x2="650.9553" y2="583.7228" gradientTransform="matrix(0.7395 -0.6731 0.6731 0.7395 -402.026 109.7552)">
						<stop  offset="0" style="stop-color:#D8BDDB"/>
						<stop  offset="1" style="stop-color:#8659A4"/>
					</linearGradient>
					<path class="st90" d="M433.27,35.64l5.02,1.17c-1.81,6.6,2.3,13.27,9.16,14.87c4.94,1.15,9.98-0.64,13.1-4.2
						c1.21-1.38,2.13-3.03,2.64-4.88l5.02,1.17c-0.71,2.6-2,4.91-3.7,6.85c-4.37,4.99-11.44,7.5-18.38,5.89
						C436.49,54.26,430.72,44.9,433.27,35.64z"/>
				</g>
				
					<linearGradient id="SVGID_92_" gradientUnits="userSpaceOnUse" x1="666.1279" y1="546.1967" x2="667.8505" y2="512.0903" gradientTransform="matrix(0.7395 -0.6731 0.6731 0.7395 -402.026 109.7552)">
					<stop  offset="0" style="stop-color:#AA84BC"/>
					<stop  offset="1" style="stop-color:#7F56A1"/>
				</linearGradient>
				<path class="st91" d="M439.09,40.36l-0.8-3.55c-0.53,1.94-0.55,3.89-0.14,5.71l0.8,3.55C438.53,44.25,438.55,42.3,439.09,40.36z
					"/>
				
					<linearGradient id="SVGID_93_" gradientUnits="userSpaceOnUse" x1="672.2626" y1="546.5071" x2="673.9852" y2="512.4" gradientTransform="matrix(0.7395 -0.6731 0.6731 0.7395 -402.026 109.7552)">
					<stop  offset="0" style="stop-color:#AA84BC"/>
					<stop  offset="1" style="stop-color:#7F56A1"/>
				</linearGradient>
				<path class="st92" d="M464.5,50.62c-4.37,4.99-11.44,7.5-18.38,5.89c-6.8-1.58-11.67-6.71-13.05-12.84l0.8,3.55
					c1.39,6.14,6.26,11.26,13.05,12.84c6.94,1.61,14.01-0.9,18.38-5.89c1.7-1.94,2.99-4.26,3.7-6.85l-0.8-3.55
					C467.49,46.36,466.2,48.68,464.5,50.62z"/>
			</g>
		</g>
		<g>
			
				<linearGradient id="SVGID_94_" gradientUnits="userSpaceOnUse" x1="132.1208" y1="-44.7365" x2="138.702" y2="-37.907" gradientTransform="matrix(0.988 0.1547 -0.1547 0.988 342.263 194.122)">
				<stop  offset="0" style="stop-color:#B997C7"/>
				<stop  offset="0.4147" style="stop-color:#D8BDDB"/>
				<stop  offset="1" style="stop-color:#8659A4"/>
			</linearGradient>
			<path class="st93" d="M503.17,153.6l-45.7,32.94c-0.7,0.51,0,2.68,1.57,4.83c1.57,2.15,3.41,3.48,4.12,2.97l45.7-32.94
				L503.17,153.6z"/>
			
				<linearGradient id="SVGID_95_" gradientUnits="userSpaceOnUse" x1="503.1411" y1="80.2701" x2="499.8596" y2="100.1702" gradientTransform="matrix(-0.9397 -0.3421 -0.3421 0.9397 1006.5488 252.7402)">
				<stop  offset="0" style="stop-color:#D8BDDB"/>
				<stop  offset="1" style="stop-color:#8659A4"/>
			</linearGradient>
			<path class="st94" d="M508.86,161.4c-0.7,0.51-2.55-0.82-4.12-2.97s-2.27-4.32-1.57-4.83c0.7-0.51,2.55,0.82,4.12,2.97
				C508.86,158.73,509.56,160.89,508.86,161.4z"/>
		</g>
	</g>
</g>
</svg>
